# xmcd CD database file
#
# Track frame offsets:
#	150
#	15758
#	31170
#	46465
#	63853
#	80161
#	95663
#	107075
#	116383
#	128156
#	146032
#
# Disc length: 2114 seconds
#
# Revision: 0
# Processed by: cddbd v1.5.2PL0 Copyright (c) Steve Scherf et al.
# Submitted via: CDex 1.81
#
DISCID=8a08400b
DTITLE=Charlie Parker - Bird And Diz
DYEAR=1957
DGENRE=Jazz
TTITLE0=Bloomdido
TTITLE1=An Oscar For Treadwell
TTITLE2=An Oscar For Treadwell (Alternate Take)
TTITLE3=Mohawk
TTITLE4=Mohawk (Alternate Take)
TTITLE5=My Melancholy Baby
TTITLE6=Lead Frog
TTITLE7=Lead Frog (Alternate Take)
TTITLE8=Lead Frog (Alternate Take)
TTITLE9=Relaxin' With Lee
TTITLE10=Relaxin' With Lee (Alternate Take)
EXTD=YEAR: 1957
EXTT0=
EXTT1=
EXTT2=
EXTT3=
EXTT4=
EXTT5=
EXTT6=
EXTT7=
EXTT8=
EXTT9=
EXTT10=
PLAYORDER=
